HIERARCHY
ROOT Hips
{
  OFFSET 13.6774 106.653 -34.4427
  CHANNELS 6 Xposition Yposition Zposition Zrotation Xrotation Yrotation
  JOINT ToSpine
  {
    OFFSET -2.69724 7.43032 -0.144315
    CHANNELS 3 Zrotation Xrotation Yrotation
    JOINT Spine
    {
      OFFSET -0.0310711 10.7595 1.96963
      CHANNELS 3 Zrotation Xrotation Yrotation
      JOINT Spine1
      {
        OFFSET 19.9056 3.91189 0.764692
        CHANNELS 3 Zrotation Xrotation Yrotation
        JOINT Neck
        {
          OFFSET 25.9749 7.03908 -0.130764
          CHANNELS 3 Zrotation Xrotation Yrotation
          JOINT Head
          {
            OFFSET 9.52751 0.295786 -0.907742
            CHANNELS 3 Zrotation Xrotation Yrotation
            End Site
            {
              OFFSET 16.4037 0.713936 2.7358
            }
          }
        }
        JOINT LeftShoulder
        {
          OFFSET 17.7449 4.33886 11.7777
          CHANNELS 3 Zrotation Xrotation Yrotation
          JOINT LeftArm
          {
            OFFSET 0.911315 1.27913 9.80584
            CHANNELS 3 Zrotation Xrotation Yrotation
            JOINT LeftForeArm
            {
              OFFSET 28.6126 1.18197 -3.53199
              CHANNELS 3 Zrotation Xrotation Yrotation
              JOINT LeftHand
              {
                OFFSET 27.5088 0.0218783 0.327423
                CHANNELS 3 Zrotation Xrotation Yrotation
                End Site
                {
                  OFFSET 18.6038 -0.000155887 0.382096
                }
              }
            }
          }
        }
        JOINT RightShoulder
        {
          OFFSET 17.1009 2.89543 -12.2328
          CHANNELS 3 Zrotation Xrotation Yrotation
          JOINT RightArm
          {
            OFFSET 1.4228 0.178766 -10.211
            CHANNELS 3 Zrotation Xrotation Yrotation
            JOINT RightForeArm
            {
              OFFSET 28.733 1.87905 2.64907
              CHANNELS 3 Zrotation Xrotation Yrotation
              JOINT RightHand
              {
                OFFSET 27.4588 0.290562 -0.101845
                CHANNELS 3 Zrotation Xrotation Yrotation
                End Site
                {
                  OFFSET 17.8396 -0.255518 -0.000602873
                }
              }
            }
          }
        }
      }
    }
  }
  JOINT LeftUpLeg
  {
    OFFSET -5.61296 -2.22332 -10.2353
    CHANNELS 3 Zrotation Xrotation Yrotation
    JOINT LeftLeg
    {
      OFFSET 2.56703 -44.7417 -7.93097
      CHANNELS 3 Zrotation Xrotation Yrotation
      JOINT LeftFoot
      {
        OFFSET 3.16933 -46.5642 -3.96578
        CHANNELS 3 Zrotation Xrotation Yrotation
        JOINT LeftToeBase
        {
          OFFSET 0.346054 -6.02161 12.8035
          CHANNELS 3 Zrotation Xrotation Yrotation
          End Site
          {
            OFFSET 0.134235 -1.35082 5.13018
          }
        }
      }
    }
  }
  JOINT RightUpLeg
  {
    OFFSET -5.7928 -1.72406 10.6446
    CHANNELS 3 Zrotation Xrotation Yrotation
    JOINT RightLeg
    {
      OFFSET -2.57161 -44.7178 -7.85259
      CHANNELS 3 Zrotation Xrotation Yrotation
      JOINT RightFoot
      {
        OFFSET -3.10148 -46.5936 -4.03391
        CHANNELS 3 Zrotation Xrotation Yrotation
        JOINT RightToeBase
        {
          OFFSET -0.0828122 -6.13587 12.8035
          CHANNELS 3 Zrotation Xrotation Yrotation
          End Site
          {
            OFFSET -0.131328 -1.35082 5.13018
          }
        }
      }
    }
  }
}
MOTION
Frames: 19
Frame Time: 0.03333333333333333
0.0000 93.1000 0.0000 78.9787 8.1758 65.7888 -70.9995 -0.7583 88.0224 83.8726 66.9263 -8.1999 -5.1484 9.1259 22.2449 -113.2873 10.0139 132.0489 -152.0394 66.2165 -180.0509 1.9934 -16.5000 -25.0442 -48.1749 34.1742 -127.8422 12.3796 2.0170 -80.9743 1.0623 -0.9596 -0.4154 0.2033 2.2894 40.5586 -87.7143 -9.4538 63.7581 -15.2844 16.2468 40.7147 0.1335 0.9072 1.3694 -20.6718 60.1576 69.7189 1.7291 22.0273 3.5846 -4.1724 -1.6486 -1.3810 0.2430 1.2450 -11.2680 10.9254 -46.0573 140.6036 -3.2053 30.3398 -25.9719 96.7515 -9.7972 -9.0135 31.9168 14.1890 -38.4495 
0.0000 93.1000 0.0000 80.0775 8.0909 66.8806 -71.0220 0.1213 88.0050 92.9451 65.0313 -15.1528 -5.7359 9.0270 19.4640 -117.3311 9.7612 134.1390 -153.1731 63.9459 177.7805 -3.6500 -17.9392 -27.6353 -50.9249 30.0924 -130.7831 10.7948 1.9202 -79.1865 -1.0457 0.5794 0.2880 -2.6784 2.4673 39.8541 -92.0433 -8.8449 62.6275 -20.3450 20.1292 44.2085 -0.0255 -0.7010 -1.2319 -20.1466 61.8239 74.3653 5.2193 17.1318 -1.8425 -4.0543 -1.7597 1.1227 0.4076 5.3510 -11.6046 18.6699 -46.8655 135.9207 -2.0144 45.8461 -22.1775 96.7689 -7.8748 -10.9172 23.2051 12.6681 -39.8970 
0.0000 93.1000 0.0000 80.0698 9.8268 67.0183 -70.9980 0.9569 88.0154 97.0413 64.5030 -19.6429 -4.7687 8.3042 19.8659 -118.3589 10.6630 135.0429 -154.3574 64.3570 -179.7343 -0.9133 -18.7377 -29.8323 -52.1041 24.7755 -132.6813 10.4344 2.5259 -74.1204 0.4309 0.9942 -0.3612 -0.9694 2.1618 40.8811 -93.9069 -6.4453 60.8140 -21.2215 19.8784 45.9630 -0.3692 -1.0163 -0.5352 -17.5859 62.2438 72.8515 5.3337 18.3211 -1.5642 -0.3968 -1.3900 -1.2090 -0.4177 4.5024 -12.9161 22.2569 -42.8834 135.9258 0.0519 65.8803 -20.9518 90.7331 -9.4562 -9.0811 22.1990 9.8814 -41.6350 
0.0000 93.1000 0.0000 80.0183 8.0185 66.0018 -71.0123 -0.0431 88.0201 89.8071 64.9713 -15.1321 -3.7341 8.1747 20.1133 -119.4769 10.8451 136.0761 -156.9557 64.3736 -178.3082 -1.4540 -20.0252 -32.8251 -53.9251 23.0705 -133.6342 10.3621 2.9956 -71.6655 -0.2163 0.1106 0.2009 -1.3115 2.0183 41.2954 -93.1312 -6.1361 61.1037 -23.3888 21.5104 47.7571 -0.0018 0.0232 -0.0967 -10.0055 59.6865 63.6655 2.4203 27.0907 2.7066 1.9635 -5.9466 -1.1752 -0.5303 3.2237 -9.2447 23.7055 -39.1755 131.4950 13.3373 82.4396 -32.1142 73.4970 -5.3385 -9.5089 20.7631 26.6985 -32.3356 
0.0000 93.1000 0.0000 77.8478 7.8713 64.0583 -71.0235 -1.4642 88.0238 81.9146 64.0898 -10.9162 -3.7816 8.0839 19.3632 -118.5162 10.2622 136.2631 -157.3031 62.6689 -177.0647 -2.6158 -19.8929 -33.3161 -52.8646 23.3386 -135.0063 9.9550 3.4275 -70.3905 -0.6346 -0.7082 0.1456 -1.9216 2.1941 39.4009 -93.7444 -6.9463 59.5347 -24.9711 22.3293 49.3802 0.5582 0.3691 0.2931 -10.8802 58.6525 60.3846 0.2889 30.1407 7.3435 2.9396 -5.6101 -0.6141 -0.6713 4.3805 -10.1604 20.2957 -36.9958 124.4040 -174.1069 84.1822 140.1873 73.5183 11.9081 -12.6644 11.1506 36.4476 -9.1069 
0.0000 93.1000 0.0000 78.0115 8.9458 60.8704 -71.0159 -0.0431 88.0173 77.8267 66.5718 -7.3227 0.3135 9.4370 16.5578 -119.2233 10.6738 136.1299 -160.3266 64.2333 -173.1265 -1.9833 -21.0347 -34.5605 -51.8663 23.4919 -134.6793 10.4616 2.5875 -68.9749 -0.0085 -0.0565 0.7565 -1.2053 1.4679 38.1628 -95.8729 -8.8439 57.0641 -26.8840 21.1018 51.6218 -0.0346 0.4635 -0.0112 -11.4736 54.5417 63.3076 -0.9263 35.2040 7.9076 4.4672 -10.4023 -1.7252 -2.3695 7.0510 -5.8737 14.7167 -32.4741 115.1403 169.3144 76.4182 165.0654 65.0855 10.0914 -11.2061 9.5629 30.0652 -10.6603 
0.0000 93.1000 0.0000 78.1152 8.8347 56.9995 -71.0088 0.2189 88.0120 75.1135 66.8511 -3.9961 0.9984 11.9596 13.5189 -120.3826 12.2442 138.1523 -162.1218 64.6673 -170.4187 -1.7863 -20.0139 -33.4168 -52.1789 27.5043 -132.8352 10.8710 3.0711 -72.0356 -0.2055 0.0905 0.4700 -1.2668 2.0003 38.8551 -97.9054 -8.4784 56.9089 -29.1080 19.6871 55.1378 0.2916 0.0638 -0.0570 -16.7859 51.9438 66.6576 -1.7843 38.1697 4.9669 4.9319 -11.6805 -1.7910 -3.2729 6.1893 -1.6641 3.7742 -28.3523 102.1230 166.1662 76.6193 -178.2319 53.1235 5.5971 -9.8671 3.9270 24.6180 -10.8229 
0.0000 93.1000 0.0000 77.2412 9.0200 52.7823 -71.0059 -0.0936 88.0141 73.0135 67.4365 -2.9275 1.5161 13.1395 12.0322 -120.4184 13.0261 139.2368 -163.4765 64.8690 -169.1335 -0.9058 -19.3355 -33.2229 -50.9295 28.7508 -130.6987 13.7069 4.1986 -73.1918 -0.1370 -0.2821 0.3797 -0.8832 2.3180 38.0419 -98.9607 -8.0567 55.7739 -30.5310 18.7163 59.1153 0.0749 0.4792 0.4616 -20.9708 46.2354 69.0310 -1.7193 41.3867 3.0680 5.6826 -13.6863 -2.4134 -2.9760 5.8704 -0.0444 -3.7043 -25.1879 89.8964 160.6586 78.8874 -172.0979 44.0133 8.5414 -8.7890 -1.3335 19.9913 -4.0191 
0.0000 93.1000 0.0000 75.9510 9.6820 47.7933 -71.0014 -0.1672 88.0161 69.0370 68.0075 -0.3833 2.1331 14.3142 10.5508 -121.3233 14.9681 140.0963 -164.3618 66.1242 -166.1079 -0.0919 -18.6464 -32.3338 -49.8377 28.8022 -128.8148 14.4516 3.9919 -74.0821 -0.0931 -0.5450 0.2878 -0.6256 2.6950 36.8359 -99.8963 -7.3126 55.7835 -32.4448 17.4309 62.7569 0.1107 0.6309 0.6432 -24.2956 41.0430 71.9558 -2.3956 45.1973 4.6910 5.7908 -15.3837 -2.9635 -2.8589 3.7806 0.9497 -11.0003 -21.9189 79.0647 147.7743 83.9395 -163.1306 32.4183 15.2833 -7.2567 -5.9903 4.9256 23.4370 
0.0000 93.1000 0.0000 76.3324 9.9194 42.8449 -71.0031 -0.6281 88.0135 68.0742 68.9482 -0.0851 1.1813 15.6693 9.0755 -121.3950 16.0218 142.1788 -165.4703 66.0111 -165.6337 -0.1412 -17.7643 -31.8034 -49.9340 29.3787 -127.8440 15.1070 3.8961 -75.3538 -0.0720 -0.7944 0.3031 -0.6920 3.0411 35.1230 -100.0390 -6.9000 56.9370 -30.5107 12.6463 67.1585 0.0882 0.7671 0.8752 -27.9664 36.4990 76.8807 -2.0481 48.3819 5.9396 4.7881 -15.9727 -2.6188 -1.6047 1.6167 0.3889 -17.8339 -16.7707 71.9311 49.9344 86.1087 -56.1099 30.2432 14.5424 -7.2577 -8.1516 -2.9973 9.4740 
0.0000 93.1000 0.0000 77.1900 8.9313 36.9980 -71.0016 -0.6345 88.0111 67.8551 69.8282 0.0467 0.7952 17.1480 6.7184 -122.2731 17.8177 145.2183 -167.2543 66.7934 -163.4620 -0.8434 -17.0124 -31.3030 -52.0793 30.0169 -126.7052 15.7936 3.8374 -76.1467 0.0650 -0.7059 0.3704 -1.0365 3.0628 33.1666 -100.1565 -7.8514 58.8809 -27.1800 8.9296 70.0897 0.5052 0.5960 0.7235 -33.1228 33.7172 83.7666 -1.9466 48.3525 6.9022 3.4355 -16.0449 -1.8813 -0.8683 0.6450 1.6759 -24.8390 -11.1479 66.9229 16.8704 79.2077 -15.2878 26.4036 16.6287 -6.8569 -7.4733 -19.1479 6.5017 
0.0000 93.1000 0.0000 78.0135 8.9677 31.9522 -70.9966 -0.2275 88.0120 69.8542 70.0985 -0.3636 0.7441 18.6597 4.0295 -122.3762 19.3610 147.0635 -168.4974 67.0760 -162.4214 -0.6475 -16.1523 -31.2057 -54.0228 30.9770 -125.6998 16.0748 3.1268 -78.1171 0.3011 -0.3513 0.0381 -0.9126 3.3159 31.9580 -100.7811 -7.3613 61.5864 -21.8870 6.0138 73.1105 0.5493 0.1440 0.5077 -36.0142 30.1752 88.8637 -1.4605 48.3253 7.0505 2.6004 -16.0620 -1.9249 -1.1109 -0.0411 1.7842 -32.7662 -6.3231 60.9253 8.2330 69.1517 -0.8276 21.3428 19.3669 -5.6697 -4.0106 -34.5168 10.0753 
0.0000 93.1000 0.0000 77.0046 9.0674 27.9835 -70.9943 -0.3267 88.0153 71.8523 70.9039 -0.0128 0.7794 19.6467 1.9148 -123.4061 21.6753 151.3601 -171.8821 68.0431 -159.1641 0.4339 -16.1089 -31.0130 -55.9175 30.1565 -124.6763 17.2134 2.5735 -80.1181 0.5496 -0.5948 0.0539 -0.4516 3.6666 31.0256 -102.6882 -6.9810 63.8385 -14.9338 2.9548 75.9345 0.7075 0.3422 0.7762 -38.6962 25.8087 93.1600 -1.6409 46.5688 5.9811 2.4201 -15.1706 -2.3134 -1.5698 -0.1785 1.3677 -38.5142 -3.2819 57.1073 5.7890 61.2437 7.6885 13.4996 22.2137 -4.2210 -0.2703 -45.5422 9.1109 
0.0000 93.1000 0.0000 74.8801 9.5716 21.8190 -70.9818 2.8735 88.0152 73.8819 70.9527 -0.9963 1.7259 20.9326 1.5778 -124.3429 24.4355 154.1842 -176.6083 68.8128 -154.2490 0.8099 -15.9417 -30.0308 -57.9887 30.0781 -124.8397 19.2818 2.2334 -83.2476 1.0368 2.3379 -1.6931 0.2666 3.9410 29.7144 -106.0693 -6.8763 66.7091 -5.7561 0.6036 77.7901 -1.9197 -2.6189 -1.7233 -40.1207 21.2376 96.9281 -1.9595 46.1872 5.0559 1.7796 -13.7575 -3.7390 -0.7267 -1.3420 0.3372 -42.8399 -2.2604 55.8838 4.0586 51.9880 10.9878 10.2835 23.6262 -1.4544 -0.7130 -41.7543 14.4452 
0.0000 93.1000 0.0000 74.0459 11.1594 16.6976 -71.0002 -0.6074 88.0012 77.6938 71.6611 -4.5787 -0.5898 20.9461 -1.1480 -128.3436 28.1111 160.2738 173.3264 69.6128 -146.5242 -0.0560 -15.1445 -30.9158 -60.1226 28.8024 -124.3089 21.1595 1.1865 -86.0956 0.5366 -0.3503 -0.3245 -0.6788 4.7577 28.2693 -111.1188 -8.4184 67.5767 0.8414 -0.9176 80.2022 -0.2267 0.0433 0.0633 -40.1100 17.4726 101.4151 -3.2274 46.7397 -2.3943 -3.0059 -10.7956 -1.0232 0.9176 -3.9860 2.2367 -48.3095 -1.3899 56.6806 2.9795 43.8448 6.7049 3.9626 16.6660 -0.8142 -0.3487 -30.6788 17.1954 
0.0000 93.1000 0.0000 72.9742 12.8847 14.0103 -70.9979 0.1593 88.0006 84.9585 71.1962 -9.0326 -1.6728 21.3872 -1.4811 -132.2448 30.8905 165.8668 164.1131 70.3123 -138.4324 0.1471 -14.8631 -30.0612 -61.8040 29.0289 -127.1672 22.6274 0.2695 -88.3335 0.0155 0.3871 -0.4355 -0.6792 5.4048 27.7537 -115.7941 -9.9490 68.9513 4.7347 -1.3511 82.0827 -0.4208 -0.4376 -0.4754 -39.3563 14.7593 103.4081 -4.8210 48.2130 -11.5115 -5.5938 -8.4952 -0.7290 3.1213 -8.4607 3.7479 -51.6632 -1.3683 57.8018 1.9437 35.4590 7.0068 -6.7053 11.4590 1.1820 1.0457 -33.9575 4.7100 
0.0000 93.1000 0.0000 70.9642 15.6742 11.9915 -70.9979 0.7838 87.9980 92.8347 70.8731 -14.6496 -2.4983 21.4235 -1.6038 -134.3580 32.6336 170.3318 156.2130 71.0561 -130.2868 -0.0953 -15.0920 -29.3514 -63.0795 28.9081 -129.2908 22.2495 -0.1948 -89.0957 -0.3376 0.9363 -0.4797 -0.9738 5.8649 29.3613 -120.1345 -9.4400 71.2464 4.1654 -0.9921 83.5407 -0.6385 -0.8263 -0.7160 -37.0371 12.7522 101.7450 -6.6620 53.3031 -22.2175 -6.4925 -8.2753 -0.6925 4.7044 -13.4195 7.2017 -51.4686 -1.7697 64.6889 2.6698 31.1532 -4.2827 -11.0174 6.5641 2.0538 0.1449 -25.8113 -2.1465 
0.0000 93.1000 0.0000 71.0763 15.9537 9.8767 -71.0011 0.3973 87.9983 94.0849 70.3321 -14.9060 -2.7045 21.0461 -1.1920 -134.2616 33.4178 170.4083 157.6621 71.4609 -130.3903 -0.5302 -14.8251 -28.9688 -65.3344 29.2340 -131.5090 22.1711 -0.4359 -90.1299 -0.5649 0.5622 -0.4083 -1.6519 6.0210 32.5985 -122.0207 -7.9219 77.4522 3.9107 -0.6746 82.0094 -0.5224 -0.4345 -0.4675 -35.3144 13.3312 98.2531 -7.5499 58.5004 -20.5120 -5.1661 -11.7707 -0.9029 5.1021 -14.7016 10.5746 -50.2457 -3.0922 68.6710 0.6745 30.9135 -10.1414 -12.2495 1.4047 2.3047 -1.2164 -16.5441 2.6160 
0.0000 93.1000 0.0000 71.0112 14.6338 7.8260 -70.9951 1.1284 88.0023 92.7886 70.4628 -13.1597 -2.6178 20.8106 -0.3794 -133.2958 33.6702 171.4551 160.8276 72.0221 -134.4305 -0.3669 -14.2132 -27.8614 -68.0066 29.9159 -131.4864 22.2916 -1.5992 -92.2932 -0.4807 1.1092 -0.7195 -1.8200 6.3737 35.0208 -123.0501 -8.8429 82.6986 4.0285 -1.0397 78.8167 -0.7537 -0.9856 -0.9965 -36.1617 16.4437 97.2936 -7.4257 60.4678 -10.1837 -2.7790 -12.8317 -1.7740 4.5055 -13.2575 10.0142 -49.0700 -4.7600 67.0788 0.6381 32.1519 -10.1684 -15.1808 -2.6198 3.5206 -2.4991 -16.3420 15.6213 
